<?xml version="1.0" encoding="UTF-8"?>
<svg version="1.1" xmlns="http://www.w3.org/2000/svg" width="1024" height="1024">
<path d="M0 0 C0 0.66 0 1.32 0 2 C0.680625 2.20625 1.36125 2.4125 2.0625 2.625 C5.91639375 4.42895027 9.07787764 6.9010345 12 10 C12 10.66 12 11.32 12 12 C12.639375 12.268125 13.27875 12.53625 13.9375 12.8125 C16 14 16 14 17 17 C17.99 17.4640625 17.99 17.4640625 19 17.9375 C19.99 18.4634375 19.99 18.4634375 21 19 C21.36162029 20.32594105 21.69728039 21.65938457 22 23 C22.99 23.33 23.98 23.66 25 24 C26.1875 27.0625 26.1875 27.0625 27 30 C27.66 30 28.32 30 29 30 C29.99 32.97 30.98 35.94 32 39 C32.66 39 33.32 39 34 39 C37.44419134 48.41002278 37.44419134 48.41002278 37 53 C37.66 53 38.32 53 39 53 C42.86384416 70.97377506 43.20266077 91.89368067 36 109 C35.608125 109.99 35.21625 110.98 34.8125 112 C34.544375 112.66 34.27625 113.32 34 114 C33.34 114 32.68 114 32 114 C31.896875 114.721875 31.79375 115.44375 31.6875 116.1875 C29.69500651 124.33860975 21.99391071 133.22273666 16 139 C15.34 139 14.68 139 14 139 C14 139.66 14 140.32 14 141 C12.26451831 142.44526736 10.46024037 143.8087222 8.625 145.125 C7.62726563 145.84945312 6.62953125 146.57390625 5.6015625 147.3203125 C3 149 3 149 1 149 C1 149.66 1 150.32 1 151 C-14.24922005 158.83350345 -27.91908534 161.76103085 -45 161 C-45.27263672 161.8353125 -45.27263672 161.8353125 -45.55078125 162.6875 C-47.24862185 167.84196991 -49.06422235 172.93010615 -51 178 C-51.66 178 -52.32 178 -53 178 C-53.09410156 178.70511719 -53.18820312 179.41023437 -53.28515625 180.13671875 C-54.13093037 183.52443697 -55.55013993 185.88140234 -57.4375 188.8125 C-58.05496094 189.78832031 -58.67242188 190.76414062 -59.30859375 191.76953125 C-59.86675781 192.50558594 -60.42492187 193.24164062 -61 194 C-61.66 194 -62.32 194 -63 194 C-63.37705078 195.10794922 -63.37705078 195.10794922 -63.76171875 196.23828125 C-65.09238086 199.20603555 -66.50978815 200.9112055 -68.8125 203.1875 C-69.47894531 203.86167969 -70.14539063 204.53585937 -70.83203125 205.23046875 C-73.1323759 207.10804735 -75.24840096 207.94420818 -78 209 C-78.6837045 210.32467746 -79.34964186 211.65863633 -80 213 C-82.25 214.5625 -82.25 214.5625 -85 216 C-86.03125 216.556875 -87.0625 217.11375 -88.125 217.6875 C-91 219 -91 219 -94 219 C-94 219.66 -94 220.32 -94 221 C-111.67144554 227.97210878 -111.67144554 227.97210878 -120 229 C-120.9796875 229.12117187 -121.959375 229.24234375 -122.96875 229.3671875 C-145.53003992 231.61236441 -165.16285688 226.31355892 -185 216 C-185 215.34 -185 214.68 -185 214 C-185.66 213.79375 -186.32 213.5875 -187 213.375 C-194.55586532 209.91189506 -199.8155202 204.34416607 -205 198 C-205.97453125 196.89011719 -205.97453125 196.89011719 -206.96875 195.7578125 C-222.44242651 177.60599967 -228.60285759 153.48246623 -227 130 C-226.60109405 126.87523675 -225.90536268 124.01018676 -225 121 C-224.82855469 120.20335937 -224.65710938 119.40671875 -224.48046875 118.5859375 C-220.83631178 102.6456896 -211.74309923 87.18414016 -199 77 C-197.87465834 76.02122602 -196.74962351 75.04209906 -195.625 74.0625 C-193 72 -193 72 -191 72 C-191 71.34 -191 70.68 -191 70 C-189.27281484 69.03810003 -187.54315942 68.08063492 -185.8125 67.125 C-184.84957031 66.59132813 -183.88664062 66.05765625 -182.89453125 65.5078125 C-178.63149097 63.28711945 -175.86209634 62 -171 62 C-171 61.34 -171 60.68 -171 60 C-160.14528053 57.34557079 -150.14213613 56.63177763 -139 57 C-138.83177734 55.71222656 -138.83177734 55.71222656 -138.66015625 54.3984375 C-137.97351836 50.8636744 -136.86705313 47.92396876 -135.4375 44.625 C-134.98246094 43.56539063 -134.52742188 42.50578125 -134.05859375 41.4140625 C-133.70925781 40.61742187 -133.35992187 39.82078125 -133 39 C-132.34 39 -131.68 39 -131 39 C-130.01 36.03 -129.02 33.06 -128 30 C-127.34 30 -126.68 30 -126 30 C-125.62875 28.63875 -125.62875 28.63875 -125.25 27.25 C-123.90185476 23.74482238 -122.72983037 22.50234451 -120 20 C-119.195625 18.96875 -118.39125 17.9375 -117.5625 16.875 C-110.78522919 8.89669386 -100.43357148 1.48003588 -91 -3 C-90.01 -3 -89.02 -3 -88 -3 C-88 -3.66 -88 -4.32 -88 -5 C-86.58603098 -5.50757862 -85.16868271 -6.00574925 -83.75 -6.5 C-82.96109375 -6.7784375 -82.1721875 -7.056875 -81.359375 -7.34375 C-79 -8 -79 -8 -75 -8 C-75 -8.66 -75 -9.32 -75 -10 C-49.09590016 -16.36986062 -23.26401149 -12.91809975 0 0 Z M-66 30 C-66 30.66 -66 31.32 -66 32 C-66.721875 32.12375 -67.44375 32.2475 -68.1875 32.375 C-70.95721894 32.9904931 -73.3970354 33.88444374 -76 35 C-76 35.66 -76 36.32 -76 37 C-76.680625 37.20625 -77.36125 37.4125 -78.0625 37.625 C-85.76077704 41.22844883 -90.77798628 47.77248499 -95 55 C-95.70726068 57.18464278 -95.70726068 57.18464278 -96 59 C-96.66 59 -97.32 59 -98 59 C-99.32 62.96 -100.64 66.92 -102 71 C-100.576875 72.134375 -99.15375 73.26875 -97.6875 74.4375 C-96.48673828 75.39462891 -96.48673828 75.39462891 -95.26171875 76.37109375 C-93.01302723 78.16111355 -93.01302723 78.16111355 -90 79 C-89.31379969 80.32338632 -88.65213539 81.65949948 -88 83 C-86.43955895 85.14167916 -84.79050671 87.03044262 -83 89 C-82.34 89 -81.68 89 -81 89 C-80.6596875 90.051875 -80.6596875 90.051875 -80.3125 91.125 C-78.72609903 94.59997355 -76.50035454 97.16810674 -74 100 C-73.30003906 100.85464844 -73.30003906 100.85464844 -72.5859375 101.7265625 C-69.07963737 105.98287335 -65.28019097 109.53364816 -61 113 C-60.113125 113.7425 -59.22625 114.485 -58.3125 115.25 C-55.07580326 117.69939213 -53.09707798 119 -49 119 C-49 119.66 -49 120.32 -49 121 C-38.60222112 124.07611551 -29.68933483 122.12624421 -20.3515625 117.3125 C-19.57554687 116.879375 -18.79953125 116.44625 -18 116 C-18 115.34 -18 114.68 -18 114 C-16.9171875 113.690625 -16.9171875 113.690625 -15.8125 113.375 C-12.02781616 111.52471012 -10.47741347 109.39759562 -8 106 C-8 105.34 -8 104.68 -8 104 C-7.34 104 -6.68 104 -6 104 C-5.01161567 101.9627797 -4.03467748 99.92000393 -3.0625 97.875 C-2.51722656 96.73804688 -1.97195313 95.60109375 -1.41015625 94.4296875 C2.74125934 84.33289279 2.0703995 71.36655502 -1 61 C-2.41671071 57.82015662 -4.13656189 54.93518431 -6 52 C-6.40476562 51.28714844 -6.80953125 50.57429688 -7.2265625 49.83984375 C-9.84471103 45.32142613 -12.71097166 42.0264155 -17 39 C-18.09248047 38.20722656 -18.09248047 38.20722656 -19.20703125 37.3984375 C-23.17265799 34.62315643 -26.14053036 32.71739095 -31 32 C-31 31.34 -31 30.68 -31 30 C-37.06829513 28.20198663 -42.77394326 27.78093367 -49.0625 27.75 C-49.81772949 27.74097656 -50.57295898 27.73195313 -51.35107422 27.72265625 C-56.53610055 27.74970268 -61.01419642 28.57386776 -66 30 Z M-165 100 C-165 100.66 -165 101.32 -165 102 C-165.721875 102.226875 -166.44375 102.45375 -167.1875 102.6875 C-170.59474093 104.27754577 -172.48059012 106.22218911 -175 109 C-175.66 109.721875 -176.32 110.44375 -177 111.1875 C-185.13799613 122.63155706 -188.12943935 134.60852385 -185.80078125 148.48046875 C-184.08899255 156.00398882 -180.99164812 162.44229238 -177 169 C-176.34 169 -175.68 169 -175 169 C-174.67 170.32 -174.34 171.64 -174 173 C-173.34 173 -172.68 173 -172 173 C-171.773125 173.61875 -171.54625 174.2375 -171.3125 174.875 C-169.62070165 177.61410209 -168.00755839 178.05024472 -165 179 C-165 179.66 -165 180.32 -165 181 C-161.19572508 183.2013866 -161.19572508 183.2013866 -157 184 C-157 184.66 -157 185.32 -157 186 C-143.12368837 190.18531482 -127.75099476 191.19138679 -114 186 C-114 185.34 -114 184.68 -114 184 C-113.278125 183.896875 -112.55625 183.79375 -111.8125 183.6875 C-104.41961567 181.8803505 -99.12362501 176.37975034 -94.4296875 170.68359375 C-93 169 -93 169 -91.55078125 167.71875 C-89.23326372 165.15021672 -87.83326646 162.13895658 -86.3125 159.0625 C-85.99216797 158.44181641 -85.67183594 157.82113281 -85.34179688 157.18164062 C-83.64673927 153.78791121 -83 151.87452418 -83 148 C-82.34 148 -81.68 148 -81 148 C-82.4388102 144.612801 -84.22119499 142.6405896 -87 140.25 C-87.70125 139.63640625 -88.4025 139.0228125 -89.125 138.390625 C-90.8786657 136.80143078 -90.8786657 136.80143078 -93 137 C-93.4021875 136.0409375 -93.4021875 136.0409375 -93.8125 135.0625 C-94.88667752 132.66868314 -94.88667752 132.66868314 -98 132 C-98.4021875 130.948125 -98.4021875 130.948125 -98.8125 129.875 C-100.42673189 125.96685964 -102.92556851 122.89898839 -106 120 C-106.66 120 -107.32 120 -108 120 C-108.226875 119.278125 -108.45375 118.55625 -108.6875 117.8125 C-111.75451763 111.24031936 -119.01926713 105.98715525 -125 102 C-125.99 102 -126.98 102 -128 102 C-128 101.34 -128 100.68 -128 100 C-141.98897606 94.40440958 -150.90784532 94.56092276 -165 100 Z " fill="#5BD3C6" transform="translate(594,379)"/>
<path d="M0 0 C0 0.66 0 1.32 0 2 C0.680625 2.20625 1.36125 2.4125 2.0625 2.625 C5.91639375 4.42895027 9.07787764 6.9010345 12 10 C12 10.66 12 11.32 12 12 C12.639375 12.268125 13.27875 12.53625 13.9375 12.8125 C16 14 16 14 17 17 C17.99 17.4640625 17.99 17.4640625 19 17.9375 C19.99 18.4634375 19.99 18.4634375 21 19 C21.36162029 20.32594105 21.69728039 21.65938457 22 23 C22.99 23.33 23.98 23.66 25 24 C26.1875 27.0625 26.1875 27.0625 27 30 C27.66 30 28.32 30 29 30 C29.99 32.97 30.98 35.94 32 39 C32.66 39 33.32 39 34 39 C37.44419134 48.41002278 37.44419134 48.41002278 37 53 C37.66 53 38.32 53 39 53 C42.86384416 70.97377506 43.20266077 91.89368067 36 109 C35.608125 109.99 35.21625 110.98 34.8125 112 C34.544375 112.66 34.27625 113.32 34 114 C33.34 114 32.68 114 32 114 C31.896875 114.721875 31.79375 115.44375 31.6875 116.1875 C29.69500651 124.33860975 21.99391071 133.22273666 16 139 C15.34 139 14.68 139 14 139 C14 139.66 14 140.32 14 141 C12.26451831 142.44526736 10.46024037 143.8087222 8.625 145.125 C7.62726563 145.84945312 6.62953125 146.57390625 5.6015625 147.3203125 C3 149 3 149 1 149 C1 149.66 1 150.32 1 151 C-14.24922005 158.83350345 -27.91908534 161.76103085 -45 161 C-45.27263672 161.8353125 -45.27263672 161.8353125 -45.55078125 162.6875 C-47.24862185 167.84196991 -49.06422235 172.93010615 -51 178 C-51.66 178 -52.32 178 -53 178 C-53.09410156 178.70511719 -53.18820312 179.41023437 -53.28515625 180.13671875 C-54.13093037 183.52443697 -55.55013993 185.88140234 -57.4375 188.8125 C-58.05496094 189.78832031 -58.67242188 190.76414062 -59.30859375 191.76953125 C-59.86675781 192.50558594 -60.42492187 193.24164062 -61 194 C-61.66 194 -62.32 194 -63 194 C-63.37705078 195.10794922 -63.37705078 195.10794922 -63.76171875 196.23828125 C-65.09238086 199.20603555 -66.50978815 200.9112055 -68.8125 203.1875 C-69.47894531 203.86167969 -70.14539063 204.53585937 -70.83203125 205.23046875 C-73.1323759 207.10804735 -75.24840096 207.94420818 -78 209 C-78.6837045 210.32467746 -79.34964186 211.65863633 -80 213 C-82.25 214.5625 -82.25 214.5625 -85 216 C-86.03125 216.556875 -87.0625 217.11375 -88.125 217.6875 C-91 219 -91 219 -94 219 C-94 219.66 -94 220.32 -94 221 C-111.67144554 227.97210878 -111.67144554 227.97210878 -120 229 C-120.9796875 229.12117187 -121.959375 229.24234375 -122.96875 229.3671875 C-145.53003992 231.61236441 -165.16285688 226.31355892 -185 216 C-185 215.34 -185 214.68 -185 214 C-185.66 213.79375 -186.32 213.5875 -187 213.375 C-194.55586532 209.91189506 -199.8155202 204.34416607 -205 198 C-205.97453125 196.89011719 -205.97453125 196.89011719 -206.96875 195.7578125 C-222.44242651 177.60599967 -228.60285759 153.48246623 -227 130 C-226.60109405 126.87523675 -225.90536268 124.01018676 -225 121 C-224.82855469 120.20335937 -224.65710938 119.40671875 -224.48046875 118.5859375 C-220.83631178 102.6456896 -211.74309923 87.18414016 -199 77 C-197.87465834 76.02122602 -196.74962351 75.04209906 -195.625 74.0625 C-193 72 -193 72 -191 72 C-191 71.34 -191 70.68 -191 70 C-189.27281484 69.03810003 -187.54315942 68.08063492 -185.8125 67.125 C-184.84957031 66.59132813 -183.88664062 66.05765625 -182.89453125 65.5078125 C-178.63149097 63.28711945 -175.86209634 62 -171 62 C-171 61.34 -171 60.68 -171 60 C-160.14528053 57.34557079 -150.14213613 56.63177763 -139 57 C-138.83177734 55.71222656 -138.83177734 55.71222656 -138.66015625 54.3984375 C-137.97351836 50.8636744 -136.86705313 47.92396876 -135.4375 44.625 C-134.98246094 43.56539063 -134.52742188 42.50578125 -134.05859375 41.4140625 C-133.70925781 40.61742187 -133.35992187 39.82078125 -133 39 C-132.34 39 -131.68 39 -131 39 C-130.01 36.03 -129.02 33.06 -128 30 C-127.34 30 -126.68 30 -126 30 C-125.62875 28.63875 -125.62875 28.63875 -125.25 27.25 C-123.90185476 23.74482238 -122.72983037 22.50234451 -120 20 C-119.195625 18.96875 -118.39125 17.9375 -117.5625 16.875 C-110.78522919 8.89669386 -100.43357148 1.48003588 -91 -3 C-90.01 -3 -89.02 -3 -88 -3 C-88 -3.66 -88 -4.32 -88 -5 C-86.58603098 -5.50757862 -85.16868271 -6.00574925 -83.75 -6.5 C-82.96109375 -6.7784375 -82.1721875 -7.056875 -81.359375 -7.34375 C-79 -8 -79 -8 -75 -8 C-75 -8.66 -75 -9.32 -75 -10 C-49.09590016 -16.36986062 -23.26401149 -12.91809975 0 0 Z M-75 -6 C-77.37420827 -5.26825953 -79.74922764 -4.53914621 -82.125 -3.8125 C-84.08344174 -3.20868482 -86.04181389 -2.60464367 -88 -2 C-88 -1.34 -88 -0.68 -88 0 C-90.31 0.66 -92.62 1.32 -95 2 C-95 2.66 -95 3.32 -95 4 C-95.85722656 4.21269531 -96.71445312 4.42539062 -97.59765625 4.64453125 C-101.77159105 6.30739621 -104.25881199 8.58812576 -107.4375 11.6875 C-108.01024658 12.23639893 -108.58299316 12.78529785 -109.1730957 13.35083008 C-110.29654336 14.4295634 -111.41672456 15.51171158 -112.53320312 16.59765625 C-113.67054422 17.68502097 -114.8508957 18.72748335 -116.046875 19.75 C-126.09180109 28.55126857 -131.72313619 42.65380532 -135.94140625 55 C-137 58 -137 58 -138 59 C-140.93967736 59.1618171 -143.8706403 59.27834009 -146.8125 59.375 C-154.54703463 59.71115893 -161.59486044 60.62457169 -169 63 C-170.12019531 63.35835938 -171.24039063 63.71671875 -172.39453125 64.0859375 C-175.27303198 65.03091679 -178.13988531 66.00098831 -181 67 C-181 67.66 -181 68.32 -181 69 C-181.89074219 69.25652344 -182.78148437 69.51304687 -183.69921875 69.77734375 C-198.58085798 75.28971426 -210.03112548 91.6718689 -216.8984375 105.265625 C-218.24911612 108.12705295 -218.24911612 108.12705295 -218 112 C-218.66 112 -219.32 112 -220 112 C-224.967744 130.18549143 -224.56361661 149.77269793 -220 168 C-219.34 168 -218.68 168 -218 168 C-217.85304688 168.85271484 -217.85304688 168.85271484 -217.703125 169.72265625 C-216.63356968 175.24561864 -215.00493872 179.25025816 -212 184 C-211.67 184.66 -211.34 185.32 -211 186 C-210.34 186 -209.68 186 -209 186 C-208.73445313 186.73476563 -208.46890625 187.46953125 -208.1953125 188.2265625 C-202.67071169 201.04508071 -188.42656442 211.34061504 -176 217 C-175.01 217 -174.02 217 -173 217 C-173 217.66 -173 218.32 -173 219 C-170.66793649 219.79557375 -168.33445914 220.58651096 -166 221.375 C-165.35160156 221.59671875 -164.70320313 221.8184375 -164.03515625 222.046875 C-141.28401115 229.70567632 -118.22056154 227.26753152 -96 219 C-96 218.34 -96 217.68 -96 217 C-95.29488281 216.90589844 -94.58976563 216.81179688 -93.86328125 216.71484375 C-90.47556303 215.86906963 -88.11859766 214.44986007 -85.1875 212.5625 C-84.21167969 211.94503906 -83.23585938 211.32757812 -82.23046875 210.69140625 C-81.12638672 209.85416016 -81.12638672 209.85416016 -80 209 C-80 208.34 -80 207.68 -80 207 C-78.94232422 206.68482422 -78.94232422 206.68482422 -77.86328125 206.36328125 C-74.21737611 204.6273728 -71.85130627 202.13800553 -69.1875 199.1875 C-68.66704102 198.61725098 -68.14658203 198.04700195 -67.61035156 197.45947266 C-58.84580609 187.77891831 -58.84580609 187.77891831 -55 176 C-54.34 176 -53.68 176 -53 176 C-52.66226563 174.78441406 -52.32453125 173.56882812 -51.9765625 172.31640625 C-51.52645516 170.73165333 -51.07591177 169.14702422 -50.625 167.5625 C-50.40328125 166.76005859 -50.1815625 165.95761719 -49.953125 165.13085938 C-49.73398437 164.36708984 -49.51484375 163.60332031 -49.2890625 162.81640625 C-49.09006348 162.10943604 -48.89106445 161.40246582 -48.68603516 160.67407227 C-48 159 -48 159 -46 158 C-44.60892257 157.87213238 -43.21265149 157.79801697 -41.81640625 157.75390625 C-40.97561523 157.72224365 -40.13482422 157.69058105 -39.26855469 157.65795898 C-38.37555664 157.62645752 -37.48255859 157.59495605 -36.5625 157.5625 C-29.23272415 157.25938405 -22.16308917 156.69219767 -15 155 C-15 154.34 -15 153.68 -15 153 C-14.40832031 152.87882813 -13.81664062 152.75765625 -13.20703125 152.6328125 C-8.96196415 151.73255357 -4.97560339 150.79543379 -1 149 C-1 148.34 -1 147.68 -1 147 C-0.30519531 146.77183594 0.38960937 146.54367187 1.10546875 146.30859375 C4.62658051 144.71672811 7.39347563 142.54575912 10.3125 140.0625 C10.8799292 139.58176025 11.4473584 139.10102051 12.03198242 138.60571289 C17.24214331 134.04413818 21.4922939 129.00866876 25 123 C25 122.34 25 121.68 25 121 C25.66 121 26.32 121 27 121 C27.99 118.03 28.98 115.06 30 112 C30.66 112 31.32 112 32 112 C32.508783 110.44033782 33.00663469 108.87710759 33.5 107.3125 C33.7784375 106.44238281 34.056875 105.57226562 34.34375 104.67578125 C34.99850805 102.00608323 35.11831495 99.73603316 35 97 C35.66 97 36.32 97 37 97 C38.19617828 90.59612088 38.18396168 84.37136245 38.1875 77.875 C38.19974609 76.71484375 38.21199219 75.5546875 38.22460938 74.359375 C38.23744554 66.70902222 37.51199745 59.49916468 36 52 C35.34 52 34.68 52 34 52 C33.88785156 51.12601563 33.88785156 51.12601563 33.7734375 50.234375 C32.56927243 42.72605165 29.62732673 36.63869232 26 30 C25.34 30 24.68 30 24 30 C23.773125 29.29488281 23.54625 28.58976562 23.3125 27.86328125 C21.73541385 24.42279272 19.56329298 21.91358364 17 19.1875 C16.50870605 18.66124023 16.01741211 18.13498047 15.51123047 17.59277344 C5.83227722 7.41913888 -6.73422318 -3.06565738 -21 -5 C-21 -5.66 -21 -6.32 -21 -7 C-39.55546771 -10.16479043 -56.82888753 -11.88641671 -75 -6 Z " fill="#2CC3B4" transform="translate(594,379)"/>
<path d="M0 0 C6.70190288 -0.3136616 11.59228743 1.43729767 17.62890625 4.1953125 C18.61890625 4.5253125 19.60890625 4.8553125 20.62890625 5.1953125 C20.62890625 5.8553125 20.62890625 6.5153125 20.62890625 7.1953125 C21.37366211 7.45256104 22.11841797 7.70980957 22.88574219 7.97485352 C25.74534308 9.24711632 27.32561001 10.51833328 29.51953125 12.72265625 C30.22464844 13.42712891 30.92976563 14.13160156 31.65625 14.85742188 C32.38972656 15.60830078 33.12320313 16.35917969 33.87890625 17.1328125 C34.63816406 17.90044922 35.39742188 18.66808594 36.1796875 19.45898438 C40.97862823 24.36081835 45.41355336 29.37693885 49.65234375 34.76953125 C54.94862572 41.26951367 61.19181409 46.8538956 67.62890625 52.1953125 C66.82425494 55.93185422 65.4531574 59.38954032 64.06640625 62.9453125 C63.61136719 64.11578125 63.15632813 65.28625 62.6875 66.4921875 C62.16349609 67.83023438 62.16349609 67.83023438 61.62890625 69.1953125 C60.96890625 69.1953125 60.30890625 69.1953125 59.62890625 69.1953125 C59.53867187 69.75476563 59.4484375 70.31421875 59.35546875 70.890625 C56.38202548 80.32251494 45.90248845 88.30637756 37.62890625 93.1953125 C36.63890625 93.1953125 35.64890625 93.1953125 34.62890625 93.1953125 C34.62890625 93.8553125 34.62890625 94.5153125 34.62890625 95.1953125 C20.70394324 100.43765151 4.10374384 102.10576614 -9.9453125 96.3828125 C-20.10583403 91.4089018 -28.38890085 84.08173983 -35.37109375 75.1953125 C-35.85320312 74.8034375 -36.3353125 74.4115625 -36.83203125 74.0078125 C-43.46951885 66.19107583 -44.25823813 51.99168523 -43.8125 42.1796875 C-43.33457019 36.54256672 -41.60424944 31.36945447 -39.37109375 26.1953125 C-38.71109375 26.1953125 -38.05109375 26.1953125 -37.37109375 26.1953125 C-37.21640625 25.1125 -37.21640625 25.1125 -37.05859375 24.0078125 C-36.30315428 20.91737829 -35.2157806 18.77787409 -33.37109375 16.1953125 C-32.71109375 16.1953125 -32.05109375 16.1953125 -31.37109375 16.1953125 C-31.16484375 15.6384375 -30.95859375 15.0815625 -30.74609375 14.5078125 C-28.47193826 10.68309646 -25.22626599 7.82997669 -20.99609375 6.3828125 C-20.45984375 6.3209375 -19.92359375 6.2590625 -19.37109375 6.1953125 C-19.37109375 5.5353125 -19.37109375 4.8753125 -19.37109375 4.1953125 C-12.90690882 1.81613332 -6.8472081 0.56402044 0 0 Z M-19.37109375 7.1953125 C-19.37109375 7.8553125 -19.37109375 8.5153125 -19.37109375 9.1953125 C-20.09296875 9.4221875 -20.81484375 9.6490625 -21.55859375 9.8828125 C-24.96583468 11.47285827 -26.85168387 13.41750161 -29.37109375 16.1953125 C-30.03109375 16.9171875 -30.69109375 17.6390625 -31.37109375 18.3828125 C-39.50908988 29.82686956 -42.5005331 41.80383635 -40.171875 55.67578125 C-38.4600863 63.19930132 -35.36274187 69.63760488 -31.37109375 76.1953125 C-30.71109375 76.1953125 -30.05109375 76.1953125 -29.37109375 76.1953125 C-29.04109375 77.5153125 -28.71109375 78.8353125 -28.37109375 80.1953125 C-27.71109375 80.1953125 -27.05109375 80.1953125 -26.37109375 80.1953125 C-26.14421875 80.8140625 -25.91734375 81.4328125 -25.68359375 82.0703125 C-23.9917954 84.80941459 -22.37865214 85.24555722 -19.37109375 86.1953125 C-19.37109375 86.8553125 -19.37109375 87.5153125 -19.37109375 88.1953125 C-15.56681883 90.3966991 -15.56681883 90.3966991 -11.37109375 91.1953125 C-11.37109375 91.8553125 -11.37109375 92.5153125 -11.37109375 93.1953125 C2.50521788 97.38062732 17.87791149 98.38669929 31.62890625 93.1953125 C31.62890625 92.5353125 31.62890625 91.8753125 31.62890625 91.1953125 C32.35078125 91.0921875 33.07265625 90.9890625 33.81640625 90.8828125 C41.20929058 89.075663 46.50528124 83.57506284 51.19921875 77.87890625 C52.62890625 76.1953125 52.62890625 76.1953125 54.078125 74.9140625 C56.39564253 72.34552922 57.79563979 69.33426908 59.31640625 66.2578125 C59.63673828 65.63712891 59.95707031 65.01644531 60.28710938 64.37695312 C61.98216698 60.98322371 62.62890625 59.06983668 62.62890625 55.1953125 C63.28890625 55.1953125 63.94890625 55.1953125 64.62890625 55.1953125 C63.19009605 51.8081135 61.40771126 49.8359021 58.62890625 47.4453125 C57.92765625 46.83171875 57.22640625 46.218125 56.50390625 45.5859375 C54.75024055 43.99674328 54.75024055 43.99674328 52.62890625 44.1953125 C52.22671875 43.23625 52.22671875 43.23625 51.81640625 42.2578125 C50.74222873 39.86399564 50.74222873 39.86399564 47.62890625 39.1953125 C47.22671875 38.1434375 47.22671875 38.1434375 46.81640625 37.0703125 C45.20217436 33.16217214 42.70333774 30.09430089 39.62890625 27.1953125 C38.96890625 27.1953125 38.30890625 27.1953125 37.62890625 27.1953125 C37.40203125 26.4734375 37.17515625 25.7515625 36.94140625 25.0078125 C33.87438862 18.43563186 26.60963912 13.18246775 20.62890625 9.1953125 C19.63890625 9.1953125 18.64890625 9.1953125 17.62890625 9.1953125 C17.62890625 8.5353125 17.62890625 7.8753125 17.62890625 7.1953125 C3.63993019 1.59972208 -5.27893907 1.75623526 -19.37109375 7.1953125 Z " fill="#2CC3B4" transform="translate(448.37109375,471.8046875)"/>
<path d="M0 0 C17.2695358 14.08476426 17.2695358 14.08476426 19 25 C19.66 25 20.32 25 21 25 C24.73081483 41.65542336 24.73081483 41.65542336 24 50 C23.87818359 51.43085938 23.87818359 51.43085938 23.75390625 52.890625 C22.79470765 60.6037684 20.10402702 66.44388136 16 73 C15.34 73 14.68 73 14 73 C13.7525 73.7425 13.505 74.485 13.25 75.25 C9.68835944 83.08560924 0.75036498 88.01020689 -7 91 C-15.77969504 93.23021192 -25.57021434 93.00176512 -33.55078125 88.58984375 C-43.19843846 82.73186102 -50.60446811 75.80902523 -57.609375 67.00390625 C-67.85816 53.14919623 -67.85816 53.14919623 -80.875 42.375 C-83 41 -83 41 -83.71875 38.73828125 C-84.03433738 35.66568749 -83.5879636 33.73231166 -82.625 30.8125 C-82.34914063 29.95269531 -82.07328125 29.09289062 -81.7890625 28.20703125 C-81 26 -81 26 -80 24 C-79.34 24 -78.68 24 -78 24 C-77.7215625 22.7625 -77.7215625 22.7625 -77.4375 21.5 C-75.49178219 16.76260011 -72.49887499 13.67738902 -69 10 C-68.45085937 9.38769531 -67.90171875 8.77539062 -67.3359375 8.14453125 C-62.83329806 3.3111292 -57.7678487 0.15835455 -52 -3 C-51.01 -3.5775 -50.02 -4.155 -49 -4.75 C-33.89407048 -11.0441373 -13.34432827 -9.79482681 0 0 Z M-46 -3 C-46 -2.34 -46 -1.68 -46 -1 C-46.721875 -0.87625 -47.44375 -0.7525 -48.1875 -0.625 C-50.95721894 -0.0095069 -53.3970354 0.88444374 -56 2 C-56 2.66 -56 3.32 -56 4 C-56.680625 4.20625 -57.36125 4.4125 -58.0625 4.625 C-65.76077704 8.22844883 -70.77798628 14.77248499 -75 22 C-75.70726068 24.18464278 -75.70726068 24.18464278 -76 26 C-76.66 26 -77.32 26 -78 26 C-79.32 29.96 -80.64 33.92 -82 38 C-80.576875 39.134375 -79.15375 40.26875 -77.6875 41.4375 C-76.48673828 42.39462891 -76.48673828 42.39462891 -75.26171875 43.37109375 C-73.01302723 45.16111355 -73.01302723 45.16111355 -70 46 C-69.31379969 47.32338632 -68.65213539 48.65949948 -68 50 C-66.43955895 52.14167916 -64.79050671 54.03044262 -63 56 C-62.34 56 -61.68 56 -61 56 C-60.6596875 57.051875 -60.6596875 57.051875 -60.3125 58.125 C-58.72609903 61.59997355 -56.50035454 64.16810674 -54 67 C-53.30003906 67.85464844 -53.30003906 67.85464844 -52.5859375 68.7265625 C-49.07963737 72.98287335 -45.28019097 76.53364816 -41 80 C-40.113125 80.7425 -39.22625 81.485 -38.3125 82.25 C-35.07580326 84.69939213 -33.09707798 86 -29 86 C-29 86.66 -29 87.32 -29 88 C-18.60222112 91.07611551 -9.68933483 89.12624421 -0.3515625 84.3125 C0.42445313 83.879375 1.20046875 83.44625 2 83 C2 82.34 2 81.68 2 81 C3.0828125 80.690625 3.0828125 80.690625 4.1875 80.375 C7.97218384 78.52471012 9.52258653 76.39759562 12 73 C12 72.34 12 71.68 12 71 C12.66 71 13.32 71 14 71 C14.98838433 68.9627797 15.96532252 66.92000393 16.9375 64.875 C17.48277344 63.73804688 18.02804687 62.60109375 18.58984375 61.4296875 C22.74125934 51.33289279 22.0703995 38.36655502 19 28 C17.58328929 24.82015662 15.86343811 21.93518431 14 19 C13.59523438 18.28714844 13.19046875 17.57429688 12.7734375 16.83984375 C10.15528897 12.32142613 7.28902834 9.0264155 3 6 C1.90751953 5.20722656 1.90751953 5.20722656 0.79296875 4.3984375 C-3.17265799 1.62315643 -6.14053036 -0.28260905 -11 -1 C-11 -1.66 -11 -2.32 -11 -3 C-17.06829513 -4.79801337 -22.77394326 -5.21906633 -29.0625 -5.25 C-29.81772949 -5.25902344 -30.57295898 -5.26804687 -31.35107422 -5.27734375 C-36.53610055 -5.25029732 -41.01419642 -4.42613224 -46 -3 Z " fill="#2DC3B5" transform="translate(574,412)"/>
<path d="M0 0 C0 0.99 0 1.98 0 3 C-3.94731074 5.66311898 -7.99163636 5.26078811 -12.5625 5.1875 C-13.33013672 5.18685547 -14.09777344 5.18621094 -14.88867188 5.18554688 C-18.17078681 5.15979358 -20.86739037 5.04420321 -24 4 C-24.33 4.99 -24.66 5.98 -25 7 C-24.625 4.5625 -24.625 4.5625 -24 2 C-21.66817606 0.83408803 -20.09891157 0.80053449 -17.5 0.68359375 C-16.1696875 0.62075195 -16.1696875 0.62075195 -14.8125 0.55664062 C-13.884375 0.51732422 -12.95625 0.47800781 -12 0.4375 C-11.071875 0.39431641 -10.14375 0.35113281 -9.1875 0.30664062 C-2.49007937 0 -2.49007937 0 0 0 Z " fill="#38C9BA" transform="translate(570,535)"/>
<path d="M0 0 C5.84304922 0.03358074 10.32122391 1.91786193 15.5625 4.3125 C16.5525 4.6425 17.5425 4.9725 18.5625 5.3125 C18.5625 5.9725 18.5625 6.6325 18.5625 7.3125 C19.366875 7.60125 20.17125 7.89 21 8.1875 C23.5625 9.3125 23.5625 9.3125 24.5625 11.3125 C20.93721432 11.51390476 18.69748292 11.17026765 15.5625 9.3125 C15.5625 8.6525 15.5625 7.9925 15.5625 7.3125 C14.38171875 7.04695313 13.2009375 6.78140625 11.984375 6.5078125 C10.42702189 6.15130998 8.86973358 5.79452428 7.3125 5.4375 C6.53519531 5.26347656 5.75789063 5.08945312 4.95703125 4.91015625 C3.82587891 4.64912109 3.82587891 4.64912109 2.671875 4.3828125 C1.98061523 4.22570801 1.28935547 4.06860352 0.57714844 3.90673828 C-1.58487125 3.26903155 -3.45354085 2.37450166 -5.4375 1.3125 C-3.84350674 -0.28149326 -2.20751275 0.0654333 0 0 Z " fill="#30C4B6" transform="translate(450.4375,471.6875)"/>
<path d="M0 0 C2.60158864 2.4715092 4.85869608 5.12031542 7 8 C7 8.66 7 9.32 7 10 C7.66 10 8.32 10 9 10 C10.68762851 11.6454378 12.3540349 13.31288577 14 15 C14.66 15.33 15.32 15.66 16 16 C16 16.66 16 17.32 16 18 C16.99 18.33 17.98 18.66 19 19 C19 19.99 19 20.98 19 22 C11.45817348 18.72548871 4.76452586 11.60885845 0 5 C-0.875 2.6875 -0.875 2.6875 -1 1 C-0.67 0.67 -0.34 0.34 0 0 Z " fill="#27C1B2" transform="translate(413,542)"/>
<path d="M0 0 C2 2 2 2 2.22705078 4.15478516 C2.21657715 5.02409668 2.20610352 5.8934082 2.1953125 6.7890625 C2.18886719 7.73007812 2.18242187 8.67109375 2.17578125 9.640625 C2.15902344 10.62546875 2.14226562 11.6103125 2.125 12.625 C2.11597656 13.61757813 2.10695313 14.61015625 2.09765625 15.6328125 C2.07404116 18.08878134 2.04110799 20.54427168 2 23 C1.34 23 0.68 23 0 23 C-0.90992305 20.27023085 -1.12844593 18.64911026 -1.1328125 15.83984375 C-1.13410156 15.04642578 -1.13539063 14.25300781 -1.13671875 13.43554688 C-1.13285156 12.61119141 -1.12898438 11.78683594 -1.125 10.9375 C-1.12886719 10.10927734 -1.13273437 9.28105469 -1.13671875 8.42773438 C-1.13542969 7.63560547 -1.13414062 6.84347656 -1.1328125 6.02734375 C-1.13168457 5.30281006 -1.13055664 4.57827637 -1.12939453 3.83178711 C-1 2 -1 2 0 0 Z " fill="#28BEB2" transform="translate(368,507)"/>
<path d="M0 0 C5.28 0 10.56 0 16 0 C15.01 0.495 15.01 0.495 14 1 C14 1.66 14 2.32 14 3 C10.09519751 4.35862973 6.2898224 3.89469712 2.25 3.5625 C1.55261719 3.51029297 0.85523438 3.45808594 0.13671875 3.40429688 C-1.57596203 3.27525928 -3.28805066 3.13840386 -5 3 C-5 2.67 -5 2.34 -5 2 C-3.35 2 -1.7 2 0 2 C0 1.34 0 0.68 0 0 Z " fill="#3CCEBC" transform="translate(451,605)"/>
<path d="M0 0 C4.92784505 0.417313 6.9777145 2.54985927 10.3125 6.0625 C11.19550781 6.98160156 12.07851563 7.90070313 12.98828125 8.84765625 C13.65214844 9.55792969 14.31601562 10.26820313 15 11 C14.01 11.66 13.02 12.32 12 13 C11.61328125 12.52949219 11.2265625 12.05898438 10.828125 11.57421875 C8.06973002 8.27643465 5.4833055 5.54549248 2 3 C2 2.34 2 1.68 2 1 C1.34 0.67 0.68 0.34 0 0 Z " fill="#21BEAB" transform="translate(472,483)"/>
<path d="M0 0 C0.66 0 1.32 0 2 0 C2.66 4.29 3.32 8.58 4 13 C3.01 13 2.02 13 1 13 C0.67 14.32 0.34 15.64 0 17 C0 11.39 0 5.78 0 0 Z " fill="#2DD1C4" transform="translate(405,510)"/>
<path d="M0 0 C0.99 1.32 1.98 2.64 3 4 C2.01 4.66 1.02 5.32 0 6 C0 5.34 0 4.68 0 4 C-5.28 4 -10.56 4 -16 4 C-16 3.67 -16 3.34 -16 3 C-10.72 3 -5.44 3 0 3 C0 2.01 0 1.02 0 0 Z " fill="#3BC8BC" transform="translate(455,433)"/>
<path d="M0 0 C0 0.66 0 1.32 0 2 C-2.52475462 3.26237731 -4.31200466 3.09856404 -7.125 3.0625 C-8.03507813 3.05347656 -8.94515625 3.04445313 -9.8828125 3.03515625 C-10.58148437 3.02355469 -11.28015625 3.01195312 -12 3 C-12 2.34 -12 1.68 -12 1 C-7.915021 0.45533613 -4.1274515 0 0 0 Z " fill="#22CEB8" transform="translate(553,366)"/>
<path d="M0 0 C3.3 0 6.6 0 10 0 C6 3 6 3 2.25 2.6875 C1.1775 2.460625 0.105 2.23375 -1 2 C-0.67 1.34 -0.34 0.68 0 0 Z " fill="#34D1C4" transform="translate(446,472)"/>
<path d="M0 0 C0 1.65 0 3.3 0 5 C-1.32 5.33 -2.64 5.66 -4 6 C-4 4.35 -4 2.7 -4 1 C-2 0 -2 0 0 0 Z " fill="#39C6BB" transform="translate(633,475)"/>
<path d="M0 0 C2.5 1.3125 2.5 1.3125 5 3 C5 3.99 5 4.98 5 6 C1.83884224 4.63016497 1.0072908 4.0109362 -1 1 C-0.67 0.67 -0.34 0.34 0 0 Z " fill="#20C7AE" transform="translate(422,554)"/>
<path d="M0 0 C0.66 0.33 1.32 0.66 2 1 C2 1.99 2 2.98 2 4 C2.66 4.66 3.32 5.32 4 6 C2.68 6.33 1.36 6.66 0 7 C-1.125 2.25 -1.125 2.25 0 0 Z " fill="#36C6B7" transform="translate(491,446)"/>
</svg>
